<?xml version="1.0" standalone="no"?>
<!DOCTYPE svg PUBLIC "-//W3C//DTD SVG 20010904//EN"
 "http://www.w3.org/TR/2001/REC-SVG-20010904/DTD/svg10.dtd">
<svg version="1.0" xmlns="http://www.w3.org/2000/svg"
 width="116.000000pt" height="117.000000pt" viewBox="0 0 116.000000 117.000000"
 preserveAspectRatio="xMidYMid meet">

<g transform="translate(0.000000,117.000000) scale(0.100000,-0.100000)"
fill="#000000" stroke="none">
<path d="M295 1120 c-28 -29 -28 -30 -10 -50 31 -34 155 -90 225 -101 41 -6
87 -7 123 -1 31 5 57 8 57 6 0 -1 -9 -22 -19 -47 -21 -49 -34 -57 -94 -57
-107 1 -244 49 -334 117 l-46 35 -30 -30 -29 -30 53 -42 c101 -80 231 -128
361 -133 l68 -2 -6 -35 c-9 -56 -11 -58 -46 -55 -18 2 -59 6 -91 10 -115 11
-268 80 -359 163 l-39 35 -31 -30 -31 -31 23 -24 c12 -12 34 -45 48 -73 24
-45 27 -60 27 -155 0 -111 -11 -147 -71 -226 l-23 -31 30 -28 c28 -24 32 -25
47 -11 33 29 81 122 98 186 12 46 15 88 11 143 -3 42 -4 77 -2 77 1 0 23 -9
49 -20 l46 -21 0 -72 c0 -123 -34 -220 -113 -326 l-40 -54 27 -24 c15 -12 31
-23 36 -23 12 0 72 76 103 130 39 70 67 167 74 258 l6 82 36 -6 c20 -4 39 -9
44 -11 22 -13 -7 -196 -48 -293 -30 -71 -89 -162 -129 -199 l-26 -25 31 -32
32 -33 37 30 c116 93 314 93 430 0 l37 -30 28 30 29 29 -23 24 c-63 67 -204
112 -322 103 l-77 -6 21 49 21 50 62 0 c126 0 252 -43 342 -117 l44 -36 31 32
32 31 -34 28 c-109 88 -229 137 -366 150 l-81 7 9 43 8 42 67 -6 c154 -14 300
-72 401 -161 l53 -46 30 31 31 30 -29 39 c-46 59 -65 112 -71 188 -7 90 14
167 63 231 l36 47 -32 31 -31 31 -25 -30 c-71 -86 -113 -233 -96 -338 5 -31 6
-57 3 -56 -3 0 -26 10 -51 22 l-45 22 0 75 c0 109 27 195 92 292 l54 81 -29
30 -30 29 -42 -53 c-81 -103 -130 -235 -133 -360 l-2 -69 -35 6 c-61 10 -60 8
-54 81 11 149 72 300 161 402 l46 53 -31 31 -31 31 -23 -20 c-118 -104 -310
-110 -444 -14 l-41 29 -28 -29z"/>
</g>
</svg>
