<?xml version="1.0" standalone="no"?>
<!DOCTYPE svg PUBLIC "-//W3C//DTD SVG 20010904//EN"
 "http://www.w3.org/TR/2001/REC-SVG-20010904/DTD/svg10.dtd">
<svg version="1.0" xmlns="http://www.w3.org/2000/svg"
 width="276.000000pt" height="169.000000pt" viewBox="0 0 276.000000 169.000000"
 preserveAspectRatio="xMidYMid meet">

<g transform="translate(0.000000,169.000000) scale(0.100000,-0.100000)"
fill="#000000" stroke="none">
<path d="M2220 1527 c-36 -18 -95 -45 -132 -61 -46 -19 -68 -34 -68 -45 0 -9
-4 -21 -8 -27 -5 -5 -19 -34 -31 -64 -13 -30 -29 -68 -36 -85 -8 -16 -26 -59
-41 -95 -33 -82 -63 -150 -75 -172 -5 -10 -9 -24 -9 -32 0 -8 -21 -22 -47 -32
-27 -10 -54 -22 -60 -27 -7 -5 -23 -7 -36 -3 -22 5 -24 10 -26 96 -2 97 -11
122 -49 139 -24 11 -26 31 -4 39 7 2 12 -5 12 -16 0 -11 7 -23 16 -26 24 -9
29 -7 16 6 -8 8 -12 53 -13 133 0 66 -3 114 -6 108 -2 -7 -11 -13 -19 -13 -16
0 -19 26 -4 35 6 3 10 17 10 31 0 24 -1 25 -72 22 -51 -2 -72 -7 -71 -15 2 -7
-4 -10 -12 -7 -12 5 -15 -3 -15 -40 0 -25 -4 -46 -10 -46 -5 0 -10 -9 -10 -19
0 -14 6 -18 23 -15 12 2 16 2 10 -2 -7 -3 -13 -12 -13 -20 0 -17 -26 -19 -33
-1 -3 6 -5 -4 -5 -23 0 -19 2 -27 5 -17 6 23 33 22 33 -2 0 -11 8 -28 18 -37
16 -17 16 -18 0 -11 -10 3 -18 2 -18 -3 0 -6 -4 -10 -10 -10 -5 0 -10 9 -10
20 0 21 -7 25 -28 12 -9 -6 -11 -24 -8 -58 2 -27 5 -55 5 -61 1 -7 13 -13 27
-13 24 0 26 -3 20 -31 -3 -17 -6 -35 -6 -40 0 -18 -19 -8 -22 11 -4 27 -22 27
-26 0 -2 -11 -7 -20 -12 -20 -12 0 -22 32 -12 39 17 12 20 37 6 56 -13 17 -14
16 -14 -17 0 -20 -6 -39 -12 -41 -10 -4 -9 -8 2 -16 10 -7 11 -11 3 -11 -7 0
-13 -7 -13 -15 0 -8 -4 -15 -10 -15 -5 0 -10 -7 -10 -16 0 -22 -33 -118 -42
-122 -5 -2 -8 -19 -8 -37 0 -18 -6 -36 -12 -38 -10 -4 -10 -6 0 -6 16 -1 16
-28 0 -34 -10 -4 -10 -6 0 -6 14 -1 17 -61 2 -61 -5 0 -12 10 -15 23 -5 16
-13 22 -34 21 -15 0 -33 -4 -40 -8 -18 -12 -26 1 -12 18 7 8 10 20 6 25 -3 7
0 8 9 5 12 -5 16 0 16 20 0 26 0 26 -27 9 -26 -17 -27 -17 -20 0 5 14 1 17
-23 17 -17 0 -30 -4 -30 -10 0 -5 -7 -10 -15 -10 -8 0 -15 5 -15 10 0 6 -13
10 -30 10 -16 0 -30 -4 -30 -10 0 -18 -18 -10 -50 21 -22 23 -28 35 -21 42 6
6 11 34 11 62 0 39 5 55 21 69 17 14 23 15 30 5 6 -10 28 -13 81 -10 98 4 118
21 118 103 l0 58 -87 -1 c-49 0 -82 -3 -75 -6 17 -7 15 -43 -3 -43 -8 0 -15 6
-15 13 0 7 -9 19 -20 27 -21 15 -28 68 -11 86 6 5 4 16 -5 28 -8 11 -14 14
-14 8 0 -16 -45 -33 -65 -26 -19 8 -20 44 -1 44 8 0 17 -10 19 -22 l4 -23 2
23 c0 12 7 22 14 22 8 0 8 3 -2 9 -9 6 -11 16 -6 27 7 18 7 18 15 -2 9 -24 43
-41 48 -25 2 7 41 11 101 11 64 0 101 4 109 12 10 10 15 10 22 -2 7 -11 10 -6
11 20 0 19 3 59 5 88 l5 52 -178 -1 c-98 0 -172 -3 -165 -6 20 -8 14 -43 -8
-43 -24 0 -28 -35 -5 -44 17 -6 20 -32 5 -41 -6 -3 -15 6 -21 22 l-12 28 -7
-25 c-9 -29 -2 -72 13 -81 6 -4 6 -15 2 -25 -4 -11 -7 -27 -6 -36 3 -20 -10
-23 -26 -7 -8 8 -11 -15 -11 -90 0 -55 4 -101 9 -101 5 0 9 5 9 10 0 6 7 10
15 10 8 0 15 -4 15 -10 0 -5 -6 -10 -12 -10 -9 0 -8 -3 2 -9 8 -6 17 -8 22 -5
10 6 48 -28 48 -43 0 -20 -34 -15 -48 7 -7 11 -17 20 -23 20 -6 0 -17 7 -25
15 -9 8 -20 15 -25 15 -14 0 -11 -68 4 -73 9 -4 9 -6 0 -6 -18 -1 -16 -21 2
-21 8 0 15 -9 15 -20 0 -11 -3 -20 -7 -20 -5 0 -8 -11 -8 -25 0 -14 3 -25 8
-25 4 0 7 -9 7 -20 0 -25 -28 -27 -38 -2 -10 27 -18 -28 -14 -110 3 -62 5 -68
19 -56 13 11 17 11 21 0 3 -10 7 -10 19 -1 12 10 16 10 24 -2 8 -12 10 -12 18
0 8 12 13 12 24 3 8 -7 22 -9 32 -6 15 6 15 4 5 -13 -7 -11 -38 -28 -69 -38
-31 -11 -63 -22 -71 -26 -20 -9 -109 -44 -202 -81 -43 -16 -78 -35 -78 -42 0
-12 180 -106 205 -106 8 0 15 -3 15 -8 0 -4 15 -15 32 -23 18 -9 53 -26 76
-38 24 -11 50 -21 57 -21 7 0 15 -4 17 -9 4 -10 212 -111 229 -111 7 0 30 17
53 38 23 20 75 66 116 102 40 36 83 74 94 85 23 21 101 90 132 115 10 9 44 38
74 65 31 28 94 84 140 125 47 41 108 96 136 123 28 26 57 47 65 47 8 0 20 5
26 11 7 7 22 13 35 15 13 2 48 10 78 19 30 9 66 19 80 22 14 2 34 8 45 13 19
8 50 17 255 75 52 15 106 31 120 36 14 4 40 11 59 14 59 12 15 32 -114 49
-161 23 -237 38 -254 50 -10 8 -12 26 -7 76 13 128 42 328 52 354 7 18 -9 36
-31 36 -5 -1 -39 -15 -75 -33z m-1232 -120 c2 -10 -3 -17 -12 -17 -10 0 -16 9
-16 21 0 24 23 21 28 -4z m92 3 c0 -11 -7 -20 -15 -20 -8 0 -15 9 -15 20 0 11
7 20 15 20 8 0 15 -9 15 -20z m90 0 c0 -11 -7 -20 -15 -20 -8 0 -15 9 -15 20
0 11 7 20 15 20 8 0 15 -9 15 -20z m360 1 c0 -11 7 -26 15 -35 20 -19 19 -23
-5 -29 -12 -3 -20 -14 -20 -26 0 -13 -6 -21 -16 -21 -13 0 -15 7 -10 31 3 17
6 47 6 65 0 24 5 34 15 34 8 0 15 -9 15 -19z m-590 -48 c0 -29 -26 -30 -33 -2
-7 25 14 53 25 35 4 -6 8 -21 8 -33z m269 0 c1 -7 -6 -13 -14 -13 -16 0 -19
17 -8 46 6 16 7 16 14 -2 4 -10 8 -25 8 -31z m-309 -3 c0 -5 -4 -10 -10 -10
-5 0 -10 5 -10 10 0 6 5 10 10 10 6 0 10 -4 10 -10z m120 -25 c0 -3 -5 -13
-11 -23 -15 -24 -59 -17 -59 9 0 15 7 19 35 19 19 0 35 -2 35 -5z m47 -17 c-3
-8 -6 -5 -6 6 -1 11 2 17 5 13 3 -3 4 -12 1 -19z m93 0 c0 -12 -5 -17 -12 -14
-7 3 -21 9 -30 12 -28 10 -21 23 12 22 23 -1 30 -6 30 -20z m450 2 c0 -11 -4
-20 -10 -20 -5 0 -10 9 -10 20 0 11 5 20 10 20 6 0 10 -9 10 -20z m0 -46 c0
-8 -4 -12 -10 -9 -5 3 -10 10 -10 16 0 5 5 9 10 9 6 0 10 -7 10 -16z m0 -44
c0 -11 -7 -20 -15 -20 -8 0 -15 9 -15 20 0 11 7 20 15 20 8 0 15 -9 15 -20z
m-62 -67 c-21 -5 -23 -24 -6 -41 9 -9 9 -12 0 -12 -9 0 -12 -30 -12 -105 0
-63 -4 -105 -10 -105 -5 0 -10 5 -10 10 0 6 -12 10 -27 10 -35 0 -63 17 -47
28 12 8 22 45 29 106 3 22 12 47 20 56 8 9 15 24 15 33 0 15 19 25 50 25 10 0
9 -2 -2 -5z m-648 -23 c0 -13 -7 -20 -20 -20 -13 0 -20 7 -20 20 0 13 7 20 20
20 13 0 20 -7 20 -20z m575 0 c0 -7 -6 -15 -12 -17 -8 -3 -13 4 -13 17 0 13 5
20 13 18 6 -3 12 -11 12 -18z m-395 -50 c0 -5 -4 -10 -10 -10 -5 0 -10 5 -10
10 0 6 5 10 10 10 6 0 10 -4 10 -10z m-190 -40 c0 -11 -7 -20 -15 -20 -8 0
-15 5 -15 10 0 6 -7 10 -16 10 -8 0 -12 5 -9 10 3 6 17 10 31 10 17 0 24 -5
24 -20z m733 -6 c3 -19 1 -24 -10 -20 -8 3 -19 6 -24 6 -5 0 -9 9 -9 20 0 31
37 26 43 -6z m559 -4 c-12 -11 -28 -20 -37 -20 -8 0 -15 -4 -15 -9 0 -8 -56
-47 -85 -60 -5 -2 -14 -8 -20 -13 -17 -13 -109 -74 -120 -79 -5 -2 -56 -35
-113 -73 -57 -37 -104 -67 -106 -65 -2 2 -6 22 -8 45 l-6 41 222 107 c121 59
237 116 256 126 47 24 58 24 32 0z m-1242 -35 c0 -16 -6 -25 -15 -25 -9 0 -15
9 -15 25 0 16 6 25 15 25 9 0 15 -9 15 -25z m37 3 c-3 -8 -6 -5 -6 6 -1 11 2
17 5 13 3 -3 4 -12 1 -19z m61 5 c-5 -26 -38 -29 -38 -4 0 15 6 21 21 21 14 0
19 -5 17 -17z m62 -19 c-18 -21 -24 -10 -9 18 8 14 14 18 17 10 2 -7 -2 -19
-8 -28z m320 -24 c12 -8 11 -10 -7 -10 -12 0 -25 5 -28 10 -8 13 15 13 35 0z
m160 0 c0 -5 -4 -10 -10 -10 -5 0 -10 5 -10 10 0 6 5 10 10 10 6 0 10 -4 10
-10z m-233 -42 c0 -24 3 -60 7 -81 5 -29 4 -39 -9 -43 -25 -10 -28 0 -20 85 7
84 24 113 22 39z m53 2 c0 -5 8 -10 18 -10 15 -1 15 -2 -2 -15 -31 -24 -56
-19 -56 10 0 18 5 25 20 25 11 0 20 -4 20 -10z m-545 -20 c0 -8 -8 -16 -17
-18 -13 -2 -18 3 -18 18 0 15 5 20 18 18 9 -2 17 -10 17 -18z m725 0 c0 -5 -7
-10 -15 -10 -8 0 -15 5 -15 10 0 6 7 10 15 10 8 0 15 -4 15 -10z m-675 -21
c-4 -6 -7 -26 -7 -45 0 -27 -4 -34 -19 -34 -27 0 -28 76 -1 83 29 8 33 7 27
-4z m535 -20 c0 -12 -7 -19 -20 -19 -22 0 -29 35 -7 43 18 6 27 -2 27 -24z
m100 1 c0 -11 -4 -20 -10 -20 -5 0 -10 -12 -11 -27 -1 -26 -2 -25 -10 7 -4 19
-6 41 -4 48 7 20 35 14 35 -8z m104 -22 c16 -23 12 -67 -7 -80 -7 -4 -6 -13 4
-24 12 -15 12 -17 -1 -12 -8 3 -20 -2 -27 -11 -10 -13 -12 -8 -13 32 0 44 12
62 23 35 3 -7 6 -1 6 15 1 18 -4 27 -14 27 -8 0 -15 9 -15 20 0 27 25 25 44
-2z m-749 -91 c-11 -56 -16 -67 -29 -67 -23 0 -49 38 -40 57 7 15 8 14 12 -9
2 -20 9 -28 24 -28 18 0 20 4 14 38 -6 40 0 56 16 46 5 -3 6 -20 3 -37z m415
24 c0 -17 -18 -31 -39 -31 -5 0 -6 11 -3 25 5 30 42 36 42 6z m250 -6 c0 -17
-5 -25 -17 -24 -11 0 -13 3 -5 6 6 2 12 13 12 24 0 10 2 19 5 19 3 0 5 -11 5
-25z m-145 -15 c3 -5 -1 -10 -9 -10 -9 0 -16 5 -16 10 0 6 4 10 9 10 6 0 13
-4 16 -10z m-65 -9 c0 -35 -14 -71 -26 -67 -8 3 -14 1 -14 -4 0 -6 -7 -10 -15
-10 -8 0 -15 9 -15 20 0 13 7 20 20 20 15 0 20 7 20 25 0 16 6 25 15 25 8 0
15 -4 15 -9z m-544 -26 c-3 -8 -1 -15 4 -15 6 0 10 -9 10 -20 0 -11 -5 -20
-10 -20 -7 0 -7 -6 0 -19 13 -25 13 -34 -1 -26 -28 18 -35 115 -7 115 6 0 8
-7 4 -15z m749 -12 c4 -10 9 -33 11 -51 3 -26 0 -34 -18 -42 -28 -12 -49 -25
-109 -67 -26 -18 -51 -33 -57 -33 -5 0 -16 -7 -23 -16 -7 -9 -20 -19 -29 -23
-8 -3 -74 -45 -145 -92 -72 -47 -135 -88 -140 -90 -6 -2 -35 -21 -66 -42 -44
-30 -62 -37 -83 -31 -14 3 -26 10 -26 15 0 5 -11 9 -25 9 -14 0 -25 4 -25 8 0
5 -27 20 -60 35 -33 14 -60 29 -60 34 0 4 15 14 33 21 17 7 39 18 47 23 8 5
26 14 39 19 13 6 114 55 225 110 146 73 212 100 239 100 21 0 37 5 37 11 0 6
9 9 20 6 16 -4 20 0 20 18 0 17 11 28 45 44 25 12 49 21 54 21 5 0 14 7 21 15
17 21 66 19 75 -2z m-575 -23 c0 -11 -7 -20 -15 -20 -8 0 -15 9 -15 20 0 11 7
20 15 20 8 0 15 -9 15 -20z m145 0 c0 -8 -8 -16 -17 -18 -13 -2 -18 3 -18 18
0 15 5 20 18 18 9 -2 17 -10 17 -18z m-58 -42 c-3 -8 -6 -5 -6 6 -1 11 2 17 5
13 3 -3 4 -12 1 -19z m-47 3 c0 -5 -7 -14 -15 -21 -16 -14 -18 -10 -9 14 6 17
24 22 24 7z m108 -8 c2 -8 -5 -13 -17 -13 -12 0 -21 6 -21 16 0 18 31 15 38
-3z m540 -3 c12 -20 6 -25 -22 -14 -19 7 -21 34 -3 34 7 0 18 -9 25 -20z"/>
<path d="M298 1388 c-2 -29 -1 -54 3 -56 9 -4 -14 -52 -24 -52 -4 0 -7 -44 -6
-97 2 -67 -1 -98 -9 -101 -16 -5 -15 -69 1 -75 10 -4 10 -6 0 -6 -18 -1 -16
-21 2 -21 21 0 19 -38 -2 -43 -17 -4 -17 -5 0 -6 9 0 17 -8 17 -16 0 -18 -36
-20 -43 -2 -3 6 -6 -23 -6 -65 -1 -42 -5 -80 -11 -83 -10 -6 9 -45 22 -45 3 0
5 38 3 85 -2 69 0 85 12 85 11 0 13 -9 7 -45 -4 -30 -3 -45 5 -45 14 0 15 -37
1 -45 -5 -3 -10 -14 -10 -23 0 -9 -5 -24 -10 -32 -8 -13 -11 -12 -24 5 -14 19
-15 17 -16 -30 0 -61 12 -84 33 -66 10 8 17 9 22 1 3 -5 19 -10 36 -10 24 0
29 4 29 24 0 14 5 28 11 32 8 4 7 9 -2 15 -11 7 -12 12 -1 29 15 25 15 45 0
71 -10 17 -10 23 0 26 14 5 17 53 2 53 -5 0 -10 9 -10 20 0 25 16 26 29 3 8
-13 10 4 11 66 l0 83 25 -4 c20 -4 26 -1 32 19 3 16 1 28 -8 34 -8 5 -9 9 -4
9 21 0 32 -16 39 -52 6 -31 4 -38 -9 -38 -10 0 -15 -10 -15 -30 0 -26 3 -30
23 -27 12 2 16 2 10 0 -15 -5 -19 -113 -5 -113 11 0 42 -110 42 -148 0 -51 75
-93 108 -60 9 9 12 9 12 0 0 -22 18 -12 22 13 5 25 -5 34 -17 15 -10 -17 -25
-11 -25 9 0 12 11 25 28 33 24 12 27 19 30 68 2 30 8 60 13 66 5 6 12 55 16
108 3 53 10 96 16 96 5 0 4 7 -3 15 -10 12 -10 19 -2 27 15 15 16 148 2 148
-5 0 -10 9 -10 19 0 11 -8 22 -17 24 -17 4 -17 5 0 6 9 0 17 8 17 16 0 8 5 15
10 15 12 0 14 -27 2 -32 -4 -1 0 -11 10 -20 17 -17 18 -15 18 62 0 44 4 80 8
80 5 0 9 14 9 30 l0 30 -70 0 c-61 0 -68 -2 -57 -15 10 -12 10 -18 -1 -31 -10
-13 -10 -17 2 -25 10 -6 10 -9 2 -9 -7 0 -13 -4 -13 -10 0 -5 7 -10 15 -10 8
0 15 -9 15 -20 0 -11 -4 -20 -9 -20 -5 0 -7 -9 -4 -20 3 -11 0 -20 -6 -20 -6
0 -11 5 -11 10 0 6 -4 10 -9 10 -12 0 -19 -96 -10 -135 7 -28 8 -29 14 -7 11
35 24 26 23 -18 0 -22 -4 -40 -9 -40 -5 0 -9 6 -9 14 0 12 -29 32 -35 24 -9
-11 -13 -98 -5 -103 13 -8 13 -35 0 -35 -5 0 -10 7 -10 15 0 8 -7 15 -15 15
-8 0 -15 -4 -15 -10 0 -5 -4 -10 -10 -10 -5 0 -10 7 -10 15 0 8 5 15 10 15 6
0 10 14 10 30 0 17 -4 30 -10 30 -5 0 -10 15 -10 34 0 49 -8 65 -31 59 -13 -4
-19 0 -19 11 0 8 -11 18 -25 22 -16 4 -25 13 -25 25 0 28 38 25 42 -3 2 -12 9
-23 16 -26 15 -5 17 54 2 63 -5 3 -10 30 -11 58 0 29 -3 46 -6 40 -7 -19 -33
-16 -34 5 -2 25 -2 25 6 50 6 21 4 22 -58 22 l-65 0 -4 -52z m62 23 c0 -10 -7
-22 -16 -25 -22 -8 -24 -5 -17 22 7 27 33 29 33 3z m317 -1 c4 -16 8 -18 19
-9 12 10 13 9 8 -5 -4 -12 -13 -15 -28 -10 -29 9 -40 20 -32 33 11 17 27 13
33 -9z m-17 -50 c0 -5 -4 -10 -10 -10 -5 0 -10 5 -10 10 0 6 5 10 10 10 6 0
10 -4 10 -10z m50 -40 c0 -11 -7 -20 -15 -20 -8 0 -15 9 -15 20 0 11 7 20 15
20 8 0 15 -9 15 -20z m-271 -47 c1 -7 -6 -13 -14 -13 -11 0 -14 8 -11 33 3 17
5 34 6 37 2 6 18 -41 19 -57z m-89 -40 c0 -10 3 -28 6 -40 5 -19 2 -23 -15
-23 -12 0 -21 6 -21 15 0 8 5 15 11 15 8 0 8 4 -1 15 -12 15 -6 35 11 35 5 0
9 -8 9 -17z m290 -3 c0 -11 -4 -20 -9 -20 -5 0 -7 -9 -4 -20 3 -11 0 -20 -6
-20 -6 0 -11 4 -11 9 0 5 -3 23 -6 40 -6 27 -4 31 15 31 14 0 21 -6 21 -20z
m-190 -91 c0 -17 -5 -20 -32 -16 -21 2 -34 10 -36 20 -3 13 4 17 32 17 30 0
36 -4 36 -21z m40 -49 c0 -11 -7 -20 -15 -20 -8 0 -15 9 -15 20 0 11 7 20 15
20 8 0 15 -9 15 -20z m-170 -34 c0 -8 -4 -18 -10 -21 -5 -3 -10 -15 -10 -26 0
-10 -4 -19 -10 -19 -12 0 -13 27 -1 34 5 3 7 15 4 26 -4 14 0 20 11 20 9 0 16
-6 16 -14z m300 -6 c0 -11 -4 -20 -10 -20 -5 0 -10 9 -10 20 0 11 5 20 10 20
6 0 10 -9 10 -20z m53 -32 c2 -7 -1 -23 -6 -36 -12 -26 -27 -12 -27 26 0 23
25 31 33 10z m-43 -59 c0 -12 8 -23 20 -26 24 -6 27 -33 3 -33 -15 0 -14 -2 3
-15 19 -15 19 -15 0 -30 -11 -8 -25 -15 -30 -14 -6 0 -5 3 2 6 6 2 12 13 12
24 0 10 -6 19 -12 20 -10 0 -10 2 0 6 19 7 14 31 -8 38 -23 7 -27 45 -5 45 9
0 15 -9 15 -21z m-280 -29 c0 -16 -4 -30 -10 -30 -11 0 -14 43 -3 53 11 12 13
8 13 -23z m179 -25 c1 -31 -2 -55 -8 -55 -17 0 -23 20 -11 35 9 11 9 15 1 15
-6 0 -11 7 -11 15 0 8 5 15 11 15 8 0 8 5 -1 15 -10 12 -10 15 2 15 11 0 15
-15 17 -55z m104 -102 c-7 -2 -13 -13 -13 -24 0 -10 6 -19 13 -20 10 0 10 -2
0 -6 -16 -6 -17 -33 -1 -33 6 0 9 -3 5 -6 -10 -10 -47 7 -47 22 0 8 5 14 10
14 6 0 10 11 10 23 0 26 8 37 24 36 6 0 5 -3 -1 -6z m-96 -48 c-2 -25 0 -45 5
-45 4 0 8 -9 8 -21 0 -14 -5 -19 -17 -17 -14 2 -17 16 -19 66 -1 47 2 62 13
62 10 0 13 -12 10 -45z m-229 -7 c18 -18 14 -38 -8 -38 -15 0 -20 7 -20 25 0
27 9 32 28 13z m-9 -94 c7 -7 -4 -13 -29 -16 -17 -2 -25 3 -28 16 -3 16 0 18
24 12 16 -4 31 -10 33 -12z m281 -24 c12 -8 9 -10 -12 -10 -16 0 -28 5 -28 10
0 13 20 13 40 0z"/>
</g>
</svg>
